<svg xmlns="http://www.w3.org/2000/svg" xmlns:xlink="http://www.w3.org/1999/xlink" viewBox="0 0 472.64 384"><defs><style>.cls-1{isolation:isolate;}.cls-2{fill:url(#linear-gradient);}.cls-3{fill:#515af6;}.cls-4{fill:url(#linear-gradient-2);}.cls-5{fill:url(#linear-gradient-3);}.cls-6{fill:url(#linear-gradient-4);}.cls-7{fill:url(#linear-gradient-5);}.cls-10,.cls-13,.cls-14,.cls-16,.cls-17,.cls-8{mix-blend-mode:multiply;}.cls-8{fill:url(#linear-gradient-6);}.cls-9{fill:url(#linear-gradient-7);}.cls-10{fill:url(#linear-gradient-8);}.cls-11{fill:url(#linear-gradient-9);}.cls-12{fill:url(#linear-gradient-10);}.cls-13{fill:url(#linear-gradient-11);}.cls-14{fill:url(#linear-gradient-12);}.cls-15{fill:url(#linear-gradient-13);}.cls-16{fill:url(#linear-gradient-14);}.cls-17{fill:url(#linear-gradient-15);}</style><linearGradient id="linear-gradient" x1="341.56" y1="291" x2="341.77" y2="292.52" gradientTransform="matrix(1, 0, 0, -1, 0, 386)" gradientUnits="userSpaceOnUse"><stop offset="0" stop-color="#fff"/><stop offset="0.18" stop-color="#fcfcfd"/><stop offset="0.32" stop-color="#f3f4f7"/><stop offset="0.43" stop-color="#e3e6ec"/><stop offset="0.54" stop-color="#ccd2dd"/><stop offset="0.64" stop-color="#afb8ca"/><stop offset="0.74" stop-color="#8c99b2"/><stop offset="0.83" stop-color="#627396"/><stop offset="0.92" stop-color="#324976"/><stop offset="1" stop-color="#001d55"/></linearGradient><linearGradient id="linear-gradient-2" x1="139.46" y1="60.87" x2="343.13" y2="264.53" gradientUnits="userSpaceOnUse"><stop offset="0" stop-color="#8cffc9"/><stop offset="0.44" stop-color="#00b9d0"/><stop offset="1" stop-color="#0064ff"/></linearGradient><linearGradient id="linear-gradient-3" x1="340.06" y1="264.73" x2="155.09" y2="79.76" gradientUnits="userSpaceOnUse"><stop offset="0" stop-color="#ff8c5f"/><stop offset="0.44" stop-color="#932aff"/><stop offset="1" stop-color="#0064ff"/></linearGradient><linearGradient id="linear-gradient-4" x1="148.93" y1="51.41" x2="352.59" y2="255.07" xlink:href="#linear-gradient-2"/><linearGradient id="linear-gradient-5" x1="126.05" y1="74.29" x2="329.71" y2="277.95" xlink:href="#linear-gradient-2"/><linearGradient id="linear-gradient-6" x1="187.92" y1="117.33" x2="151.2" y2="150.54" gradientUnits="userSpaceOnUse"><stop offset="0" stop-color="#fff"/><stop offset="0.18" stop-color="#fcfcfd"/><stop offset="0.32" stop-color="#f3f4f7"/><stop offset="0.43" stop-color="#e3e6ed"/><stop offset="0.54" stop-color="#ccd2de"/><stop offset="0.64" stop-color="#afb8cb"/><stop offset="0.74" stop-color="#8c98b4"/><stop offset="0.83" stop-color="#627398"/><stop offset="0.92" stop-color="#324879"/><stop offset="1" stop-color="#001c59"/></linearGradient><linearGradient id="linear-gradient-7" x1="186.24" y1="14.09" x2="389.9" y2="217.76" xlink:href="#linear-gradient-2"/><linearGradient id="linear-gradient-8" x1="284.83" y1="128.73" x2="324.82" y2="155.61" gradientUnits="userSpaceOnUse"><stop offset="0" stop-color="#fff"/><stop offset="0.14" stop-color="#fbfcfd"/><stop offset="0.27" stop-color="#f0f2f5"/><stop offset="0.39" stop-color="#dee2e9"/><stop offset="0.51" stop-color="#c4cad9"/><stop offset="0.63" stop-color="#a2acc3"/><stop offset="0.74" stop-color="#7988a8"/><stop offset="0.86" stop-color="#485c88"/><stop offset="0.97" stop-color="#112c64"/><stop offset="1" stop-color="#001c59"/></linearGradient><linearGradient id="linear-gradient-9" x1="289.28" y1="315.51" x2="104.31" y2="130.54" xlink:href="#linear-gradient-3"/><linearGradient id="linear-gradient-10" x1="363.09" y1="241.69" x2="178.12" y2="56.72" xlink:href="#linear-gradient-3"/><linearGradient id="linear-gradient-11" x1="226.89" y1="80.52" x2="167.99" y2="79.96" xlink:href="#linear-gradient-6"/><linearGradient id="linear-gradient-12" x1="238.82" y1="81.34" x2="307.06" y2="78.35" xlink:href="#linear-gradient-6"/><linearGradient id="linear-gradient-13" x1="343.4" y1="102.86" x2="343.62" y2="101.31" xlink:href="#linear-gradient-6"/><linearGradient id="linear-gradient-14" x1="177.47" y1="192.34" x2="200.8" y2="225.93" xlink:href="#linear-gradient-6"/><linearGradient id="linear-gradient-15" x1="-44.05" y1="192.34" x2="-20.73" y2="225.93" gradientTransform="matrix(-1, 0, 0, 1, 251.12, 0)" xlink:href="#linear-gradient-6"/></defs><g class="cls-1"><g id="Layer_1" data-name="Layer 1"><path class="cls-2" d="M341.14,93.62c.34.66.65,1.32.94,2C341.79,94.94,341.48,94.28,341.14,93.62Z"/><path class="cls-3" d="M35,354.4V309.58H63.82v3.61H39.17v16.19H61.58V333H39.17v21.4Z"/><path class="cls-3" d="M70,309.58h4.24v26.71q0,8.34,3.11,12t10,3.67a17.29,17.29,0,0,0,6.13-1A9.41,9.41,0,0,0,97.6,348a12.15,12.15,0,0,0,2.24-4.88,30.29,30.29,0,0,0,.68-6.91V309.58h4.24v27.95q0,8.78-4.33,13.42t-13,4.63q-8.78,0-13.07-4.73t-4.3-13.32Z"/><path class="cls-3" d="M119.09,334.05V354.4l-4.23-.06V309.58h17.55q7.41,0,11.33,2.77t3.92,9a11.7,11.7,0,0,1-1.71,6.72,13,13,0,0,1-5.57,4.23,7.06,7.06,0,0,1,3.11,2,8.88,8.88,0,0,1,1.68,3,15.33,15.33,0,0,1,.72,3.55c.1,1.25.17,2.45.22,3.61q.06,2.55.21,4.23a25.42,25.42,0,0,0,.38,2.74,6,6,0,0,0,.53,1.65,2.32,2.32,0,0,0,.74.9v.38l-4.66.06a8.17,8.17,0,0,1-1-3.11c-.19-1.33-.33-2.72-.44-4.17s-.18-2.87-.24-4.24a25.18,25.18,0,0,0-.35-3.36,7,7,0,0,0-1.21-2.89,5.51,5.51,0,0,0-2-1.65,9,9,0,0,0-2.65-.75,25.16,25.16,0,0,0-3-.18Zm13.2-3.61a18.54,18.54,0,0,0,4.39-.5,9.71,9.71,0,0,0,3.51-1.59,7.73,7.73,0,0,0,2.37-2.77,8.73,8.73,0,0,0,.87-4.05,8.45,8.45,0,0,0-.9-4.1,6.86,6.86,0,0,0-2.43-2.56,10.45,10.45,0,0,0-3.49-1.3,21.34,21.34,0,0,0-4.07-.38H119.09v17.25Z"/><path class="cls-3" d="M160.67,315.31h-.12V354.4h-4.24V309.58h4.8L187,348.74h.13V309.58h4.23V354.4h-4.92Z"/><path class="cls-3" d="M202.87,354.4V309.58h4.24V354.4Z"/><path class="cls-3" d="M214.64,309.58h32.61v3.61H233.06V354.4h-4.23V313.19H214.64Z"/><path class="cls-3" d="M253.35,309.58h4.24v26.71q0,8.34,3.11,12t10,3.67a17.29,17.29,0,0,0,6.13-1,9.41,9.41,0,0,0,4.08-2.93,12.28,12.28,0,0,0,2.24-4.88,31.46,31.46,0,0,0,.68-6.91V309.58h4.24v27.95q0,8.78-4.33,13.42t-13,4.63q-8.78,0-13.07-4.73t-4.3-13.32Z"/><path class="cls-3" d="M302.4,334.05V354.4l-4.23-.06V309.58h17.55q7.41,0,11.33,2.77t3.92,9a11.7,11.7,0,0,1-1.71,6.72,13,13,0,0,1-5.57,4.23,7.06,7.06,0,0,1,3.11,2,8.88,8.88,0,0,1,1.68,3,15.33,15.33,0,0,1,.72,3.55c.1,1.25.17,2.45.22,3.61q.06,2.55.21,4.23a25.42,25.42,0,0,0,.38,2.74,6,6,0,0,0,.53,1.65,2.32,2.32,0,0,0,.74.9v.38l-4.67.06a8.54,8.54,0,0,1-1-3.11c-.19-1.33-.33-2.72-.44-4.17s-.18-2.87-.25-4.24a23.61,23.61,0,0,0-.34-3.36,7,7,0,0,0-1.21-2.89,5.51,5.51,0,0,0-2-1.65,9,9,0,0,0-2.65-.75,25.16,25.16,0,0,0-3-.18Zm13.2-3.61a18.46,18.46,0,0,0,4.38-.5,9.76,9.76,0,0,0,3.52-1.59,7.73,7.73,0,0,0,2.37-2.77,8.73,8.73,0,0,0,.87-4.05,8.45,8.45,0,0,0-.9-4.1,6.94,6.94,0,0,0-2.43-2.56,10.45,10.45,0,0,0-3.49-1.3,21.34,21.34,0,0,0-4.07-.38H302.4v17.25Z"/><path class="cls-3" d="M339.75,354.4V309.58h29.81v3.61H344v16.19h23.09V333H344v17.8h26.2v3.61Z"/><path class="cls-3" d="M377.78,354.4V309.58H382v41.21h24v3.61Z"/><path class="cls-3" d="M419.23,331.18l13.51-21.6h4.92l-16.25,25.28V354.4h-4.23V335.17l-16-25.59H406Z"/><path class="cls-4" d="M188.16,156.21l7,12.39a9.34,9.34,0,0,0,8.35,4.69h65.64a9.33,9.33,0,0,0,8.35-4.69l7-12.39a2,2,0,0,1,1.85-1h-100A2,2,0,0,1,188.16,156.21Z"/><path class="cls-5" d="M330.31,88.07,252.48,43.13a32.09,32.09,0,0,0-14.7-4.29V66.32a2.83,2.83,0,0,0,2.83,2.82H242a2.57,2.57,0,0,1,2.15,1.15l14.2,21.53a2.57,2.57,0,0,1-2.15,4H216.4a2.56,2.56,0,0,1-2.14-4l14.19-21.53a2.57,2.57,0,0,1,2.15-1.15H232a2.82,2.82,0,0,0,2.82-2.82V38.84a32,32,0,0,0-14.69,4.29L142.33,88.07a32.31,32.31,0,0,0-16.16,28v89.88a32.31,32.31,0,0,0,16.16,28l77.84,44.94a32.32,32.32,0,0,0,32.31,0l77.83-44.94a32.31,32.31,0,0,0,16.16-28V116.05A32.31,32.31,0,0,0,330.31,88.07ZM311.76,160,301,187.26a12.74,12.74,0,0,1-12.35,8.24h-8.32l4.56,11.89h-4.4l-4.25-5.85a14.63,14.63,0,0,0-11.85-6h-56a14.63,14.63,0,0,0-11.84,6l-4.26,5.86h-4.39l4.56-11.89H184a12.75,12.75,0,0,1-12.35-8.24L160.88,160c-.76-1.9,1.8-4.74,4.18-4.74h11.81l3.22-20.59a20.93,20.93,0,0,1,20.67-17.69h71.43a20.93,20.93,0,0,1,20.67,17.69l3.22,20.59h11.51C310,155.22,312.52,158.06,311.76,160Z"/><path class="cls-6" d="M166.81,174.93l-5.93-15c-.76-1.9,1.8-4.74,4.18-4.74h11.81l3.22-20.59a20.93,20.93,0,0,1,20.67-17.69h71.43a20.93,20.93,0,0,1,20.67,17.69l3.22,20.59h11.51c2.38,0,4.93,2.84,4.17,4.74l-5.93,15h40.64V116.05a32.31,32.31,0,0,0-16.16-28L252.48,43.13a32.09,32.09,0,0,0-14.7-4.29V66.32a2.83,2.83,0,0,0,2.83,2.82H242a2.57,2.57,0,0,1,2.15,1.15l14.2,21.53a2.57,2.57,0,0,1-2.15,4H216.4a2.56,2.56,0,0,1-2.14-4l14.19-21.53a2.57,2.57,0,0,1,2.15-1.15H232a2.82,2.82,0,0,0,2.82-2.82V38.84a32,32,0,0,0-14.69,4.29L142.33,88.07a32.31,32.31,0,0,0-16.16,28v58.88Z"/><path class="cls-7" d="M167.55,176.82,160.88,160c-.75-1.9,1.79-4.74,4.18-4.74h11.81l3.22-20.59s12.25-91.42,55.37-95.8h0a32.37,32.37,0,0,0-15.3,4.31L142.33,88.06a32.32,32.32,0,0,0-16.16,28v89.87a32.32,32.32,0,0,0,13.68,26.39l25.39-50.12Z"/><path class="cls-8" d="M167.55,176.82,160.88,160c-.75-1.9,1.79-4.74,4.18-4.74h11.81l3.22-20.59s12.25-91.42,55.37-95.8h0a32.37,32.37,0,0,0-15.3,4.31L142.33,88.06a32.32,32.32,0,0,0-16.16,28v89.87a32.32,32.32,0,0,0,13.68,26.39l25.39-50.12Z"/><path class="cls-9" d="M305.09,176.82,311.76,160c.75-1.9-1.79-4.74-4.18-4.74H295.77l-3.22-20.59s-12.24-91.42-55.37-95.8h0a32.37,32.37,0,0,1,15.3,4.31l77.83,44.93a32.32,32.32,0,0,1,16.16,28v89.87a32.32,32.32,0,0,1-13.68,26.39L307.4,182.19Z"/><path class="cls-10" d="M305.09,176.82,311.76,160c.75-1.9-1.79-4.74-4.18-4.74H295.77l-3.22-20.59s-12.24-91.42-55.37-95.8h0a32.37,32.37,0,0,1,15.3,4.31l77.83,44.93a32.32,32.32,0,0,1,16.16,28v89.87a32.32,32.32,0,0,1-13.68,26.39L307.4,182.19Z"/><path class="cls-11" d="M171.69,187.26,134.79,94.1a32.32,32.32,0,0,0-8.62,22v89.87a32.31,32.31,0,0,0,16.16,28l61.72,35.63Z"/><path class="cls-12" d="M301,187.26l36.9-93.16a32.28,32.28,0,0,1,8.62,22v89.87a32.31,32.31,0,0,1-16.16,28L268.6,269.54Z"/><path class="cls-13" d="M270.29,53.41,252.48,43.13a32.29,32.29,0,0,0-32.32,0l-8.74,5c-13.11,17.29-27.37,43.6-24.24,73.78a20.88,20.88,0,0,1,13.58-5h69.53Z"/><path class="cls-14" d="M202.61,53.41l17.81-10.28a32.29,32.29,0,0,1,32.32,0l8.73,5c13.12,17.29,27.37,43.6,24.25,73.78a20.9,20.9,0,0,0-13.58-5H202.61Z"/><path class="cls-15" d="M343,101.46c.34.66.66,1.34.95,2C343.63,102.8,343.32,102.12,343,101.46Z"/><path class="cls-16" d="M187.81,207.39h4.4l-29.67,38.19-20.21-11.66a32.34,32.34,0,0,1-16.16-28V116.05a32.34,32.34,0,0,1,16.16-28l21.76-12.57,17,55.38a20.3,20.3,0,0,0-1,3.76l-3.22,20.58H165.06c-2.39,0-4.93,2.85-4.18,4.75l10.81,27.31A12.76,12.76,0,0,0,184,195.5h8.33Z"/><path class="cls-17" d="M284.84,207.39h-4.4l29.66,38.19,20.21-11.66a32.34,32.34,0,0,0,16.16-28V116.05a32.34,32.34,0,0,0-16.16-28L308.55,75.49,291.6,130.87a22,22,0,0,1,.95,3.76l3.22,20.58h11.81c2.39,0,4.94,2.85,4.18,4.75L301,187.27a12.76,12.76,0,0,1-12.35,8.23h-8.33Z"/></g></g></svg>