<svg xmlns="http://www.w3.org/2000/svg" xmlns:xlink="http://www.w3.org/1999/xlink" viewBox="0 0 262.72 283.4"><defs><style>.cls-1{isolation:isolate;}.cls-2{fill:url(#linear-gradient);}.cls-3{fill:url(#linear-gradient-2);}.cls-4{fill:url(#linear-gradient-3);}.cls-5{fill:url(#linear-gradient-4);}.cls-6{fill:url(#linear-gradient-5);}.cls-12,.cls-13,.cls-15,.cls-16,.cls-7,.cls-9{mix-blend-mode:multiply;}.cls-7{fill:url(#linear-gradient-6);}.cls-8{fill:url(#linear-gradient-7);}.cls-9{fill:url(#linear-gradient-8);}.cls-10{fill:url(#linear-gradient-9);}.cls-11{fill:url(#linear-gradient-10);}.cls-12{fill:url(#linear-gradient-11);}.cls-13{fill:url(#linear-gradient-12);}.cls-14{fill:url(#linear-gradient-13);}.cls-15{fill:url(#linear-gradient-14);}.cls-16{fill:url(#linear-gradient-15);}</style><linearGradient id="linear-gradient" x1="167.91" y1="181.71" x2="97.44" y2="111.24" gradientUnits="userSpaceOnUse"><stop offset="0" stop-color="#e8eaea"/><stop offset="1" stop-color="#fcfcfc"/></linearGradient><linearGradient id="linear-gradient-2" x1="28.24" y1="34.81" x2="245.5" y2="252.07" gradientUnits="userSpaceOnUse"><stop offset="0" stop-color="#aaffce"/><stop offset="0.44" stop-color="#0db7ce"/><stop offset="1" stop-color="#1e68ff"/></linearGradient><linearGradient id="linear-gradient-3" x1="242.8" y1="252.33" x2="45.04" y2="54.58" gradientUnits="userSpaceOnUse"><stop offset="0" stop-color="#ff936a"/><stop offset="0.44" stop-color="#883fff"/><stop offset="1" stop-color="#1e68ff"/></linearGradient><linearGradient id="linear-gradient-4" x1="38.13" y1="24.59" x2="255.87" y2="242.33" xlink:href="#linear-gradient-2"/><linearGradient id="linear-gradient-5" x1="13.66" y1="49.05" x2="231.41" y2="266.8" xlink:href="#linear-gradient-2"/><linearGradient id="linear-gradient-6" x1="79.81" y1="95.07" x2="40.56" y2="130.58" gradientUnits="userSpaceOnUse"><stop offset="0" stop-color="#fff"/><stop offset="0.18" stop-color="#fcfcfd"/><stop offset="0.32" stop-color="#f3f4f7"/><stop offset="0.43" stop-color="#e3e6ec"/><stop offset="0.54" stop-color="#ccd2dd"/><stop offset="0.64" stop-color="#afb8ca"/><stop offset="0.74" stop-color="#8c99b2"/><stop offset="0.83" stop-color="#627396"/><stop offset="0.92" stop-color="#324976"/><stop offset="1" stop-color="#001d55"/></linearGradient><linearGradient id="linear-gradient-7" x1="78.02" y1="-15.3" x2="295.76" y2="202.44" xlink:href="#linear-gradient-2"/><linearGradient id="linear-gradient-8" x1="183.42" y1="107.26" x2="226.18" y2="136" gradientUnits="userSpaceOnUse"><stop offset="0" stop-color="#fff"/><stop offset="0.14" stop-color="#fbfcfd"/><stop offset="0.27" stop-color="#f0f2f5"/><stop offset="0.39" stop-color="#dee2e9"/><stop offset="0.51" stop-color="#c4cbd8"/><stop offset="0.63" stop-color="#a2adc1"/><stop offset="0.74" stop-color="#7988a6"/><stop offset="0.86" stop-color="#485d85"/><stop offset="0.97" stop-color="#112c61"/><stop offset="1" stop-color="#001d55"/></linearGradient><linearGradient id="linear-gradient-9" x1="188.18" y1="306.95" x2="-9.57" y2="109.19" xlink:href="#linear-gradient-3"/><linearGradient id="linear-gradient-10" x1="267.1" y1="228.03" x2="69.34" y2="30.27" xlink:href="#linear-gradient-3"/><linearGradient id="linear-gradient-11" x1="121.57" y1="55.71" x2="58.72" y2="55.11" xlink:href="#linear-gradient-6"/><linearGradient id="linear-gradient-12" x1="134.13" y1="56.62" x2="206.92" y2="53.43" xlink:href="#linear-gradient-6"/><linearGradient id="linear-gradient-13" x1="246.04" y1="79.6" x2="246.28" y2="77.94" xlink:href="#linear-gradient-6"/><linearGradient id="linear-gradient-14" x1="68.74" y1="175.3" x2="93.62" y2="211.13" xlink:href="#linear-gradient-6"/><linearGradient id="linear-gradient-15" x1="-152.08" y1="175.3" x2="-127.19" y2="211.13" gradientTransform="matrix(-1, 0, 0, 1, 42.31, 0)" xlink:href="#linear-gradient-6"/></defs><g class="cls-1"><g id="OBJECTS"><path class="cls-2" d="M212.29,139.57a3.12,3.12,0,0,0-.37-1.22,2.26,2.26,0,0,0-.16-.26.21.21,0,0,0,0-.06l-.15-.2-.06-.08h0l0,0h0l-.1-.12h0l-.18-.18h0a.47.47,0,0,0-.12-.09.28.28,0,0,0-.1-.09,2.36,2.36,0,0,0-.35-.23l0,0a4.62,4.62,0,0,0-2.81-1.12h-1.21c-.48-.05-1-.09-1.49-.1s-1.17,0-1.76,0c-2.13-.06-4.72,0-7.83.14-1.17-7.43-1.82-16.31-4.21-23.89a18.16,18.16,0,0,0-.5-1.92l.12.79a25.56,25.56,0,0,0-6.49-10.73c-3.39-3.16-8-5.11-14.47-5.17h-6.06c-9.57-.66-21.17-.59-32.15-.35-11-.24-22.58-.31-32.15.35h-6C87.89,95,83.65,96.5,80.41,99a6.77,6.77,0,0,0-.58.44c-.28.22-.55.46-.81.71-3.46,3.21-5.61,7.68-7.06,12.65.13-.88.26-1.78.4-2.69a45.64,45.64,0,0,0-1.16,5.5,1.77,1.77,0,0,0,0,.2c-1.56,6.62-2.18,13.82-3.16,20-3.33-.15-6.07-.21-8.3-.14h-.05a29.69,29.69,0,0,0-3,.14H55.37A4.62,4.62,0,0,0,52.56,137a.1.1,0,0,0-.05,0,.44.44,0,0,0-.15.1l-.13.1a1.84,1.84,0,0,0-.22.17.75.75,0,0,0-.19.17l0,0s0,0,0,0a.17.17,0,0,0-.07.08c-.06.06-.11.13-.16.19l0,0-.05.07a.76.76,0,0,0-.12.19l0,.06a3.26,3.26,0,0,0-.26.53,3.11,3.11,0,0,0-.16.7h0a2.34,2.34,0,0,0,0,1.39s0,0,0,.06l.33.82,0,.06v0a63.47,63.47,0,0,0,2.86,7.24l.06.13.06.15v0l3,7.49,0,0v0l.81,2.05,4.41,11.14a.42.42,0,0,0,0,.1,11.57,11.57,0,0,0,.48,1.25l.05.1s0,.05,0,.08.16.33.25.49.2.36.31.54a5.5,5.5,0,0,0,.36.57,9.78,9.78,0,0,0,1.23,1.47,11.32,11.32,0,0,0,1.69,1.4c.31.2.62.39.94.57s.65.35,1,.5l.6.26c.39.15.79.3,1.2.43h0c.41.13.83.24,1.25.35h0c.64.16,1.29.28,2,.39a52.17,52.17,0,0,0,10.7.29L79.7,191.62h4.7c3.94-6,9.16-13.19,17.21-12.72h59.91c8.07-.47,13.23,6.74,17.21,12.71h4.71l-4.88-12.71,1.1.05h0q.85,0,1.74.06c1.35,0,2.74,0,4.13,0,.8,0,1.61-.1,2.4-.19.22,0,.45-.05.67-.09.43-.06.86-.12,1.29-.2.67-.13,1.33-.28,2-.46a14.92,14.92,0,0,0,2.43-.88,12.26,12.26,0,0,0,2.85-1.77,9.59,9.59,0,0,0,.75-.68l0,0a12.39,12.39,0,0,0,.83-.94,11.2,11.2,0,0,0,1.3-2.13l.08-.18s0,0,0,0c.09-.2.18-.39.26-.6s.15-.42.21-.63l0-.07L205.07,159l.81-2.05h0l3.24-8.18,0-.09.05-.12a53.27,53.27,0,0,0,2.71-6.84v0l.29-.74A2.25,2.25,0,0,0,212.29,139.57Zm-45.64,15.59H96.48c-8.86.92-12.43-12.86-16.4-18.26a2.2,2.2,0,0,0-2-1.06H185a2.19,2.19,0,0,0-2,1.06C179.23,142.26,175.4,156.1,166.65,155.16Z"/><path class="cls-3" d="M80.08,136.63c4,5.4,7.55,19.18,16.4,18.27h70.17c8.76.94,12.58-12.9,16.4-18.27a2.18,2.18,0,0,1,2-1H78.1A2.19,2.19,0,0,1,80.08,136.63Z"/><path class="cls-4" d="M232.05,63.78c-10.92-4.68-87.78-55-98.92-52.63V40.53c.1,4.51,5.07,1.71,6.85,4.25l15.18,23a2.74,2.74,0,0,1-2.3,4.25h-42.6A2.74,2.74,0,0,1,108,67.8l15.18-23c1.77-2.53,6.74.26,6.85-4.25V11.15C119.39,8.56,41.45,59.37,31.08,63.78A34.55,34.55,0,0,0,13.8,93.71C15.15,233.92-6.4,196.49,114.29,267.76a34.56,34.56,0,0,0,34.55,0l83.21-48a34.54,34.54,0,0,0,17.28-29.92V93.71A34.57,34.57,0,0,0,232.05,63.78Zm-19.83,76.87-11.56,29.19c-3,9.29-14,9.21-22.1,8.8l4.88,12.71h-4.71c-4-6-9.14-13.18-17.21-12.71H101.61c-8-.47-13.27,6.75-17.21,12.71H79.7l4.88-12.71c-8.16.39-19.13.51-22.12-8.8L50.9,140.65c-1.32-7.52,13.2-4.52,17.1-5.07,2.64-16.75,2.64-40.68,25.54-40.92h76.37c22.86.21,22.94,24.22,25.55,40.92C199.38,136.11,213.53,133.19,212.22,140.65Z"/><path class="cls-5" d="M57.24,156.66C51.13,139.09,43,134.42,68,135.58c2.64-16.75,2.64-40.68,25.54-40.92h76.37c22.86.21,22.94,24.22,25.55,40.92,24.92-1.21,16.23,4,10.42,21.08h43.45V93.71a34.57,34.57,0,0,0-17.28-29.93c-10.69-4.57-87.94-55.06-98.92-52.63V40.53c.1,4.51,5.07,1.71,6.85,4.25l15.18,23a2.74,2.74,0,0,1-2.3,4.25h-42.6A2.74,2.74,0,0,1,108,67.8l15.18-23c1.77-2.53,6.74.26,6.85-4.25V11.15C119.47,8.53,41.4,59.39,31.08,63.78A34.55,34.55,0,0,0,13.8,93.71v63Z"/><path class="cls-6" d="M58,158.67l-7.13-18c-.81-2,1.91-5.06,4.47-5.06H68c5.65-17.57,5.91-109,62.63-124.43h0C119.46,8.23,41.87,59.21,31.07,63.78A34.55,34.55,0,0,0,13.8,93.7v96.09A34.52,34.52,0,0,0,28.42,218C29.43,215.87,58.71,158.77,58,158.67Z"/><path class="cls-7" d="M58,158.67l-7.13-18c-.81-2,1.91-5.06,4.47-5.06H68c5.65-17.57,5.91-109,62.63-124.43h0C119.46,8.23,41.87,59.21,31.07,63.78A34.55,34.55,0,0,0,13.8,93.7v96.09A34.52,34.52,0,0,0,28.42,218C29.43,215.87,58.71,158.77,58,158.67Z"/><path class="cls-8" d="M205.08,158.67l7.14-18c.8-2-1.92-5.06-4.47-5.06H195.12c-5.65-17.57-5.91-109-62.63-124.43h0c11.17-2.91,88.77,48.07,99.56,52.64A34.55,34.55,0,0,1,249.33,93.7v96.09A34.53,34.53,0,0,1,234.7,218C233.7,215.87,204.42,158.77,205.08,158.67Z"/><path class="cls-9" d="M205.08,158.67l7.14-18c.8-2-1.92-5.06-4.47-5.06H195.12c-5.65-17.57-5.91-109-62.63-124.43h0c11.17-2.91,88.77,48.07,99.56,52.64A34.55,34.55,0,0,1,249.33,93.7v96.09A34.53,34.53,0,0,1,234.7,218C233.7,215.87,204.42,158.77,205.08,158.67Z"/><path class="cls-10" d="M62.46,169.84,23,70.24A34.53,34.53,0,0,0,13.8,93.7v96.09a34.55,34.55,0,0,0,17.27,29.92l66,38.1Z"/><path class="cls-11" d="M200.66,169.84l39.46-99.6a34.53,34.53,0,0,1,9.21,23.46v96.09a34.55,34.55,0,0,1-17.28,29.92l-66,38.1Z"/><path class="cls-12" d="M167.88,26.73C152,17.05,132.72,4,114.29,15.74,91.71,27.84,76.33,67.59,79,100c7.38-10.27,77.83-3.56,88.85-5.35Z"/><path class="cls-13" d="M95.52,26.73c15.86-9.68,35.16-22.75,53.6-11,22.57,12.1,37.95,51.85,35.25,84.27-7.38-10.27-77.83-3.56-88.85-5.35Z"/><path class="cls-14" d="M245.59,78.1c.37.71.71,1.44,1,2.18C246.29,79.54,246,78.81,245.59,78.1Z"/><path class="cls-15" d="M79.7,191.36h4.7L52.68,232.19c-16.66-9.44-40-19.53-38.88-42.4V93.7C12.55,70.3,37.57,60,54.34,50.34l18.13,59.2c-1.08,2.3-3.89,23.13-4.46,26-3.92.58-18.42-2.46-17.1,5.08l11.55,29.19c3,9.29,14,9.22,22.11,8.8Z"/><path class="cls-16" d="M183.43,191.36h-4.7l31.72,40.83c16.66-9.44,40-19.53,38.88-42.4V93.7c1.25-23.4-23.77-33.67-40.54-43.36l-18.13,59.2c1.08,2.3,3.89,23.13,4.46,26,3.92.58,18.42-2.46,17.1,5.08l-11.56,29.19c-3,9.29-14,9.22-22.1,8.8Z"/></g></g></svg>